<svg viewBox="0 0 788 256" xmlns="http://www.w3.org/2000/svg" class='labcoat-logo'>
    <title>
        labcoat-wordmark-positive-pink
    </title>
    <g fill="none" fill-rule="evenodd">
        <path d="M0 0h788v256H0z"/>
        <path d="M301.836 167v-13.125h-29.61v-56.91h-14.91V167h44.52zm79.245 0l-26.984-70.035h-18.69L308.316 167h17.01l4.41-11.865h30.03L364.07 167h17.01zm-25.41-24.99h-21.84l10.92-30.135 10.92 30.135zM429.14 167c13.336 0 20.37-8.4 20.37-18.9 0-8.82-5.984-16.065-13.44-17.22 6.616-1.365 12.076-7.245 12.076-16.065 0-9.345-6.825-17.85-20.16-17.85H391.13V167h38.01zm-4.41-42h-18.69v-15.225h18.69c5.04 0 8.19 3.255 8.19 7.665s-3.15 7.56-8.19 7.56zm.526 29.085H406.04V137.81h19.216c5.88 0 9.03 3.78 9.03 8.19 0 5.04-3.36 8.085-9.03 8.085zM498.2 168.26c15.435 0 24.255-8.505 29.295-17.22l-12.81-6.195c-2.94 5.775-9.24 10.185-16.485 10.185-12.705 0-21.945-9.765-21.945-22.995s9.24-22.995 21.945-22.995c7.245 0 13.545 4.515 16.485 10.185l12.81-6.3c-4.935-8.715-13.86-17.115-29.295-17.115-21 0-37.275 14.7-37.275 36.225 0 21.525 16.275 36.225 37.275 36.225zm74.94 0c21.21 0 36.645-15.12 36.645-36.225 0-21.105-15.435-36.225-36.645-36.225-21.105 0-36.54 15.12-36.54 36.225 0 21.105 15.435 36.225 36.54 36.225zm0-13.23c-12.915 0-21.21-9.975-21.21-22.995 0-13.125 8.295-22.995 21.21-22.995 12.915 0 21.315 9.87 21.315 22.995 0 13.02-8.4 22.995-21.315 22.995zM685.564 167L658.58 96.965h-18.69L612.8 167h17.01l4.41-11.865h30.03L668.553 167h17.01zm-25.41-24.99h-21.84l10.92-30.135 10.92 30.135zM720.08 167v-56.91h20.37V96.965h-55.86v13.125h20.474V167h15.015z" fill="#ffffff"/>
        <path d="M0 0h256v256H0z"/>
        <path d="M48 88c0-4.418 3.585-8 8.003-8h143.994A8.005 8.005 0 0 1 208 88v81.515c0 4.418-3.323 9.33-7.42 10.968L128 209.52l-72.58-29.037c-4.1-1.64-7.42-6.554-7.42-10.968V88z" stroke="#ffffff" stroke-width="16"/>
        <g transform="translate(80 32)" fill="#ffffff">
            <path d="M16 0h16v112H16z"/>
            <rect y="16" width="48" height="32" rx="16"/>
        </g>
    </g>
</svg>

