<svg width="135" height="42" viewBox="0 0 135 42" xmlns="http://www.w3.org/2000/svg" xmlns:xlink="http://www.w3.org/1999/xlink" style="background:#404041" class='moment-logo'>
    <title>
        Artboard Copy 3
    </title>
    <defs>
        <path id="a" d="M0 .675v12h13.16v-12H0z"/>
        <path id="c" d="M14.184.302H.006V13h14.178V.302z"/>
        <path id="e" d="M0 .675v12h13.16v-12H0z"/>
        <path id="g" d="M14.184.302H.006V13h14.178V.302z"/>
        <path id="i" d="M0 .675v12h13.16v-12H0z"/>
        <path id="k" d="M14.184.302H.006V13h14.178V.302z"/>
        <path id="m" d="M0 .675v12h13.16v-12H0z"/>
        <path id="o" d="M14.184.302H.006V13h14.178V.302z"/>
    </defs>
    <g fill="none" fill-rule="evenodd">
        <g transform="translate(14 14.698)">
            <mask id="b" fill="#fff">
                <use xlink:href="#a"/>
            </mask>
            <path d="M1.512.675L6.086 10.4c.272.594.34.78.528 1.274l5.048-11h1.497v12.002h-1.074V2c-.135.34-.17.427-.355.818l-4.538 9.858H6l-4.572-9.79c-.187-.393-.22-.46-.357-.885v10.676H0v-12h1.512z" fill="#C4DFE1" mask="url(#b)"/>
        </g>
        <g transform="translate(33 14.698)">
            <mask id="d" fill="#fff">
                <use xlink:href="#c"/>
            </mask>
            <path d="M14.184 6.64c0 3.47-2.77 6.36-7.174 6.36-4.2 0-7.004-2.703-7.004-6.34C.006 3.123 2.76.3 7.13.3c4.76.033 7.054 3.264 7.054 6.34m-12.92.067c0 3.298 2.55 5.27 5.848 5.27 3.18 0 5.763-1.92 5.763-5.407 0-1.512-.628-3.228-2.11-4.214-.56-.376-2.02-1.107-4.01-1.02-3.842.17-5.49 2.872-5.49 5.37" fill="#C4DFE1" mask="url(#d)"/>
        </g>
        <path d="M54.56 15.373l4.575 9.724c.272.595.34.78.525 1.275l5.05-11h1.495v12.002h-1.072V16.7c-.134.34-.17.425-.356.816l-4.54 9.858h-1.19l-4.57-9.79c-.188-.393-.22-.46-.357-.885v10.674h-1.072v-12h1.512zM73.107 15.373v12H85.09v-1H74.28v-4.795h9.538v-1.002H74.28v-4.2H84.6v-1.003zM102.737 15.373v10.523L92.452 15.373h-1.07v12h1.07V16.906l10.285 10.47h1.07V15.372zM108.585 15.373v1.004h5.39v10.997h1.14V16.377h5.15v-1.004z" fill="#C4DFE1"/>
        <g transform="translate(14 14.698)">
            <mask id="f" fill="#fff">
                <use xlink:href="#e"/>
            </mask>
            <path d="M1.512.675L6.086 10.4c.272.594.34.78.528 1.274l5.048-11h1.497v12.002h-1.074V2c-.135.34-.17.427-.355.818l-4.538 9.858H6l-4.572-9.79c-.187-.393-.22-.46-.357-.885v10.676H0v-12h1.512z" fill="#C4DFE1" mask="url(#f)"/>
        </g>
        <g transform="translate(33 14.698)">
            <mask id="h" fill="#fff">
                <use xlink:href="#g"/>
            </mask>
            <path d="M14.184 6.64c0 3.47-2.77 6.36-7.174 6.36-4.2 0-7.004-2.703-7.004-6.34C.006 3.123 2.76.3 7.13.3c4.76.033 7.054 3.264 7.054 6.34m-12.92.067c0 3.298 2.55 5.27 5.848 5.27 3.18 0 5.763-1.92 5.763-5.407 0-1.512-.628-3.228-2.11-4.214-.56-.376-2.02-1.107-4.01-1.02-3.842.17-5.49 2.872-5.49 5.37" fill="#C4DFE1" mask="url(#h)"/>
        </g>
        <path d="M54.56 15.373l4.575 9.724c.272.595.34.78.525 1.275l5.05-11h1.495v12.002h-1.072V16.7c-.134.34-.17.425-.356.816l-4.54 9.858h-1.19l-4.57-9.79c-.188-.393-.22-.46-.357-.885v10.674h-1.072v-12h1.512zM73.107 15.373v12H85.09v-1H74.28v-4.795h9.538v-1.002H74.28v-4.2H84.6v-1.003zM102.737 15.373v10.523L92.452 15.373h-1.07v12h1.07V16.906l10.285 10.47h1.07V15.372zM108.585 15.373v1.004h5.39v10.997h1.14V16.377h5.15v-1.004z" fill="#C4DFE1"/>
        <g transform="translate(14 14.698)">
            <mask id="j" fill="#fff">
                <use xlink:href="#i"/>
            </mask>
            <path d="M1.512.675L6.086 10.4c.272.594.34.78.528 1.274l5.048-11h1.497v12.002h-1.074V2c-.135.34-.17.427-.355.818l-4.538 9.858H6l-4.572-9.79c-.187-.393-.22-.46-.357-.885v10.676H0v-12h1.512z" fill="#C4DFE1" mask="url(#j)"/>
        </g>
        <g transform="translate(33 14.698)">
            <mask id="l" fill="#fff">
                <use xlink:href="#k"/>
            </mask>
            <path d="M14.184 6.64c0 3.47-2.77 6.36-7.174 6.36-4.2 0-7.004-2.703-7.004-6.34C.006 3.123 2.76.3 7.13.3c4.76.033 7.054 3.264 7.054 6.34m-12.92.067c0 3.298 2.55 5.27 5.848 5.27 3.18 0 5.763-1.92 5.763-5.407 0-1.512-.628-3.228-2.11-4.214-.56-.376-2.02-1.107-4.01-1.02-3.842.17-5.49 2.872-5.49 5.37" fill="#C4DFE1" mask="url(#l)"/>
        </g>
        <path d="M54.56 15.373l4.575 9.724c.272.595.34.78.525 1.275l5.05-11h1.495v12.002h-1.072V16.7c-.134.34-.17.425-.356.816l-4.54 9.858h-1.19l-4.57-9.79c-.188-.393-.22-.46-.357-.885v10.674h-1.072v-12h1.512zM73.107 15.373v12H85.09v-1H74.28v-4.795h9.538v-1.002H74.28v-4.2H84.6v-1.003zM102.737 15.373v10.523L92.452 15.373h-1.07v12h1.07V16.906l10.285 10.47h1.07V15.372zM108.585 15.373v1.004h5.39v10.997h1.14V16.377h5.15v-1.004z" fill="#C4DFE1"/>
        <g>
            <g transform="translate(14 14.698)">
                <mask id="n" fill="#fff">
                    <use xlink:href="#m"/>
                </mask>
                <path d="M1.512.675L6.086 10.4c.272.594.34.78.528 1.274l5.048-11h1.497v12.002h-1.074V2c-.135.34-.17.427-.355.818l-4.538 9.858H6l-4.572-9.79c-.187-.393-.22-.46-.357-.885v10.676H0v-12h1.512z" fill="#C4DFE1" mask="url(#n)"/>
            </g>
            <g transform="translate(33 14.698)">
                <mask id="p" fill="#fff">
                    <use xlink:href="#o"/>
                </mask>
                <path d="M14.184 6.64c0 3.47-2.77 6.36-7.174 6.36-4.2 0-7.004-2.703-7.004-6.34C.006 3.123 2.76.3 7.13.3c4.76.033 7.054 3.264 7.054 6.34m-12.92.067c0 3.298 2.55 5.27 5.848 5.27 3.18 0 5.763-1.92 5.763-5.407 0-1.512-.628-3.228-2.11-4.214-.56-.376-2.02-1.107-4.01-1.02-3.842.17-5.49 2.872-5.49 5.37" fill="#C4DFE1" mask="url(#p)"/>
            </g>
            <path d="M54.56 15.373l4.575 9.724c.272.595.34.78.525 1.275l5.05-11h1.495v12.002h-1.072V16.7c-.134.34-.17.425-.356.816l-4.54 9.858h-1.19l-4.57-9.79c-.188-.393-.22-.46-.357-.885v10.674h-1.072v-12h1.512z" fill="#C4DFE1"/>
        </g>
        <path fill="#C4DFE1" d="M73.107 15.373v12H85.09v-1H74.28v-4.795h9.538v-1.002H74.28v-4.2H84.6v-1.003zM102.737 15.373v10.523L92.452 15.373h-1.07v12h1.07V16.906l10.285 10.47h1.07V15.372zM108.585 15.373v1.004h5.39v10.997h1.14V16.377h5.15v-1.004z"/>
    </g>
</svg>

