<svg xmlns="http://www.w3.org/2000/svg" height="119.16" width="119.16"><path d="M119.16 119.16H0V0h119.16v119.16" fill="#fff"/><path d="M87.934 44.756v-9.397h-4.349v.661h1.217v8.736h-1.567v.622h6.266v-.622h-1.567M26.08 29.291h-.566c-.022.482-.277.69-.76.69-.965 0-2.379-1.174-4.036-1.174-4.719 0-7.572 4.648-7.572 8.746 0 4.12 2.715 8.194 7.273 8.194 2.761 0 3.797-1.312 4.534-1.312.483 0 .572.425.572.943h.624V39.74h-.624l-.138.782c-.321 1.865-1.769 4.62-4.738 4.62-2.624 0-3.636-2.272-3.636-7.864 0-5.87 1.38-7.844 3.705-7.844 2.624 0 4.429 2.942 4.796 5.288h.566v-5.43M38.295 43.427c0 .59-.39 1.27-.646 1.27-.408 0-.502-.43-.502-1.135v-5.221c0-2.588-2.429-3.223-4.766-3.223-2.271 0-3.928 1.112-3.928 2.383 0 .794.454 1.475 1.476 1.475.862 0 1.385-.567 1.385-1.36 0-1.155-1.2-1.17-1.2-1.197 0-.515 1.334-.681 2.108-.681 1.702 0 1.929.627 1.929 1.99v1.907l-2.224.18c-2.067.16-4.314.705-4.314 3.066 0 1.975 1.77 2.77 3.518 2.77.887 0 2.453-.34 3.043-1.43.409.953 1.249 1.43 2.27 1.43 1.475 0 2.428-.886 2.428-2.224zm-4.144-.75c-.045 1.203-.726 2.19-1.793 2.19-1.543 0-1.612-1.304-1.612-2.3 0-1.203.136-1.997 1.612-2.156l1.793-.182v2.448M90.368 83.78v-9.4h-4.7v.664h1.567v8.735H85.67v.622h6.265v-.622h-1.566M31.436 49.782l.014-.642h-5.187L22.5 59.9l-3.66-10.774h-5.696v.656h1.537v12.963c0 .976-.24 1.734-1.537 1.734v.627h3.926v-.627h-.069c-1.225 0-1.701-.1-1.701-1.938V49.67h.045l5.424 15.436h.614l5.289-15.164h.044V64.48h-1.513v.627h6.232v-.627h-1.484V49.782h1.484M35.065 59.613h6.265c-.023-2.452-2.293-4.811-4.677-4.767-2.678 0-4.994 2.315-4.994 5.38 0 2.95 2.157 5.152 5.062 5.152 2.793 0 4.178-1.725 4.677-3.971h-.618c-.5 2.11-1.607 3.31-3.378 3.31-2.11 0-2.337-1.654-2.337-3.197zm0-.616V57.47c0-1.52.657-1.997 1.43-1.997 1.09 0 1.429.75 1.429 1.997v1.526h-2.86M61.143 78.906h6.265c-.023-2.452-2.293-4.813-4.677-4.767-2.678 0-4.994 2.315-4.994 5.38 0 2.95 2.157 5.152 5.064 5.152 2.79 0 4.176-1.725 4.675-3.972h-.618c-.5 2.112-1.607 3.311-3.377 3.311-2.11 0-2.338-1.654-2.338-3.197zm0-.617v-1.525c0-1.521.659-1.998 1.43-1.998 1.09 0 1.43.75 1.43 1.998v1.525h-2.86" fill="#c4122e"/><path d="M41.368 49.162v.576h1.568v14.726h-1.568v.642h6.266v-.642h-1.567V49.162h-4.699M48.07 49.162v.576h1.567v14.726h-1.566v.642h6.265v-.642H52.77V49.162h-4.7M65.08 60.113c0-3.11-2.406-5.267-5.402-5.267s-5.403 2.156-5.403 5.267c0 3.109 2.407 5.265 5.403 5.265 2.996 0 5.402-2.156 5.402-5.265m-3.54 2.243c0 1.703-.705 2.407-1.862 2.407-1.158 0-1.86-.704-1.86-2.407V57.89c0-1.702.702-2.407 1.86-2.407 1.157 0 1.862.705 1.862 2.407v4.467M13.145 69.011h1.587v10.085c0 3.518 2.429 5.65 6.13 5.65 4.177 0 5.993-2.201 5.993-5.538v-8.621c0-1.317.363-1.576 1.18-1.576h.46v-.608h-3.993v.608h.287c1.157 0 1.317.35 1.317 1.667v8.757c0 3.088-1.916 4.495-3.86 4.495-3.313 0-3.971-2.225-4.17-5.13V69.01h1.489v-.608h-6.42v.608M52.475 84.656h.613l3.36-7.944c.68-1.485 1.044-1.672 1.566-1.696h.204v-.62h-3.541v.627h.432c.657 0 .96-.042.96.548 0 .364-.116.721-.386 1.38l-1.543 3.632-2.471-5.56h1.26v-.628h-5.698v.628h1.066l4.178 9.633M77.768 84.656h.538c.113-.364.347-.544.8-.544.591 0 1.295.544 2.565.544 2.158 0 3.632-1.861 3.632-3.723 0-2.77-1.906-2.974-4.335-3.314-1.27-.182-1.99-.363-1.99-1.362 0-1.067.93-1.514 2.156-1.514 1.702 0 2.362 1.129 2.93 2.604h.535v-3.224h-.514c0 .272-.234.499-.665.499-.728 0-1.317-.499-2.362-.499-2.27 0-3.381 1.93-3.381 3.383 0 2.929 2.224 3.179 3.948 3.382 1.636.204 2.226.308 2.226 1.352 0 1.203-.998 1.752-2.226 1.752-1.723 0-2.911-1.491-3.32-3.149h-.537v3.813M46.402 83.78v-9.4h-4.7v.664h1.567v8.735h-1.566v.622h6.265v-.622h-1.566M43.271 71.248c0 .87.696 1.564 1.564 1.564.87 0 1.564-.694 1.564-1.564 0-.868-.694-1.563-1.564-1.563-.868 0-1.564.695-1.564 1.563M87.231 71.248c0 .87.694 1.564 1.564 1.564.869 0 1.564-.694 1.564-1.564 0-.868-.695-1.563-1.564-1.563-.87 0-1.564.695-1.564 1.563M65.608 39.882h6.265c-.022-2.452-2.293-4.811-4.676-4.767-2.678 0-4.993 2.315-4.993 5.38 0 2.951 2.156 5.153 5.061 5.153 2.793 0 4.177-1.725 4.677-3.971h-.618c-.499 2.11-1.607 3.31-3.378 3.31-2.11 0-2.338-1.654-2.338-3.197zm0-.616V37.74c0-1.52.658-1.996 1.43-1.996 1.09 0 1.43.749 1.43 1.996v1.526h-2.86M93.015 39.882h6.266c-.024-2.452-2.294-4.811-4.677-4.767-2.679 0-4.994 2.315-4.994 5.38 0 2.951 2.156 5.153 5.063 5.153 2.791 0 4.176-1.725 4.675-3.971h-.618c-.499 2.11-1.607 3.31-3.377 3.31-2.11 0-2.338-1.654-2.338-3.197zm0-.616V37.74c0-1.52.659-1.996 1.43-1.996.813 0 1.43.47 1.43 1.996v1.526h-2.86M39.692 83.786v-6.13c0-2.45-1.044-3.595-3.2-3.595-1.521 0-3.064.872-3.677 2.189V74.41h-4.7v.613h1.565v8.762h-1.565v.613h6.04v-.613h-1.34v-5.99c.195-.842 1.263-2.788 2.502-2.788.824 0 1.243.286 1.243 1.81v6.968h-1.294v.613h5.992v-.613h-1.566" fill="#c4122e"/><path d="M76.65 64.493v-6.129c0-2.45-1.044-3.596-3.2-3.596-1.522 0-3.064.872-3.677 2.19h-.002v-1.839h-4.697v.612h1.565v8.762h-1.565v.613h6.037v-.613h-1.34v-5.99c.196-.842 1.264-2.787 2.504-2.787.824 0 1.243.285 1.243 1.808v6.969h-1.295v.613h5.994v-.613h-1.566M60.611 44.763v-6.128c0-2.452-1.042-3.598-3.198-3.598-1.523 0-3.065.874-3.68 2.19V35.39h-4.698V36H50.6v8.762h-1.566v.613h6.039v-.613h-1.34v-5.99c.195-.843 1.263-2.786 2.503-2.786.825 0 1.243.283 1.243 1.807v6.969h-1.294v.613h5.992v-.613h-1.567M84.812 32.255c0 .868.695 1.563 1.563 1.563.87 0 1.565-.695 1.565-1.563 0-.869-.694-1.564-1.565-1.564-.868 0-1.563.695-1.563 1.564M105.604 74.385v.659c.967-.004 1.392.088 1.392.527 0 .364-.116.721-.386 1.38l-1.543 3.632-2.46-5.538h1.288v-.66h-7.824v-4.87h-.41c0 2.406-1.634 4.88-3.927 4.88v.65h1.204v7.023c0 2.157 1.86 2.588 2.496 2.588 1.386 0 2.315-.567 3.019-1.748l-.486-.267c-.272.408-.636.953-1.202.953-.455 0-.694-.323-.694-1.07v-7.48h3.164l4.149 9.566-1.436 3.382-.003.008h-.002a.19.19 0 01-.172.11.189.189 0 01-.176-.128c-.002-.003-.002-.007-.003-.01a1.55 1.55 0 00-1.499-1.137c-.868 0-1.563.696-1.563 1.564 0 .612.347 1.13.854 1.388l-.007.002.05.022.09.041c.176.072.367.116.57.12 1.317.11 1.992-.86 2.457-1.853.105-.225.2-.45.289-.665.199-.48.547-1.305.957-2.27l.394-.924h-.001l3.192-7.548c.68-1.485.944-1.675 1.768-1.675h.002v-.652h-3.541M46.748 35.011c-1.453 0-2.566.997-2.996 2.134h-.045v-1.729h-4.654v.636h1.566v8.734h-1.566v.62h6.787v-.62h-2.088v-4.89c0-1.46.382-2.955 1.341-3.78a.192.192 0 01.197-.02c.075.039.11.117.101.195l.003.003a2.18 2.18 0 00-.123.647c-.03.824.66 1.475 1.545 1.475 1.09 0 1.725-.794 1.725-1.658 0-1.09-.726-1.747-1.793-1.747M78.283 38.44c0 2.639-.612 2.726-1.43 2.726-.908 0-1.385-.174-1.385-2.794 0-1.84.205-2.621 1.386-2.621 1.066 0 1.407.07 1.43 2.68zm-.385 7.755c2.27 0 2.873.095 2.873 1.48 0 1.656-2.03 3.179-4.323 3.179-2.042 0-3.023-1.254-3.067-2.343 0-1 .496-1.657 1.11-2.316zm3.017-10.444c.044-.012.101-.038.137-.003.032.035.032.08.007.124l-.002.004a.974.974 0 00-.082.833.98.98 0 001.9-.333c0-.402-.25-.705-.537-.886a1.86 1.86 0 00-1-.263c-.604 0-1.223.325-1.667.711l-.002-.003a4.328 4.328 0 00-.323-.21c-.625-.363-1.44-.607-2.515-.607-1.907 0-3.95 1.247-3.95 3.314 0 1.248.681 2.225 1.884 2.77v.045c-.885.113-2.27.725-2.27 2.61 0 1.135.521 1.998 1.476 2.27v.046c-.909.25-1.953 1.157-1.953 2.247 0 1.68 1.975 2.974 4.496 2.974 3.155 0 5.22-2.134 5.22-4.904 0-2.201-1.089-3.2-3.314-3.155h-3.768c-.568 0-.947-.023-.947-.636 0-.567.871-1.18 1.733-1.18.152 0 .397.116.46.137.275.088.57.135.933.135 1.952 0 4.04-1.112 4.04-3.268 0-.668-.29-1.58-.829-2.146a.079.079 0 01.005-.116c.22-.174.473-.32.593-.386.097-.055.175-.094.267-.123l.008-.001M75.359 73.975c-1.453 0-2.567.999-2.998 2.134h-.045V74.38h-4.652v.635h1.566v8.734h-1.566v.622h6.786v-.622h-2.089v-4.89c0-1.46.382-2.953 1.34-3.776a.19.19 0 01.196-.02.19.19 0 01.1.194l.004.007c-.06.176-.108.386-.119.64-.03.824.66 1.475 1.545 1.475 1.09 0 1.725-.795 1.725-1.656 0-1.09-.727-1.75-1.793-1.75" fill="#c4122e"/></svg>