<svg xmlns="http://www.w3.org/2000/svg" xmlns:xlink="http://www.w3.org/1999/xlink" id="icon-sprite" style="display:none">
  <symbol id='envelope' viewBox="0 0 50 50">
    <path opacity=".9" d="M31.796 24.244l9.97 9.97-1.415 1.414-9.97-9.97zM18.278 24.287l1.414 1.414-9.9 9.9-1.414-1.41z"/>
    <path d="M25 29.9c-1.5 0-3.1-.6-4.2-1.8L8.3 15.7l1.4-1.4 12.5 12.5c1.6 1.6 4.1 1.6 5.7 0l12.5-12.5 1.4 1.4-12.6 12.5c-1.1 1.1-2.7 1.7-4.2 1.7z"/>
    <path d="M39 38H11c-1.7 0-3-1.3-3-3V15c0-1.7 1.3-3 3-3h28c1.7 0 3 1.3 3 3v20c0 1.7-1.3 3-3 3zM11 14c-.6 0-1 .4-1 1v20c0 .6.4 1 1 1h28c.6 0 1-.4 1-1V15c0-.6-.4-1-1-1H11z"/>
  </symbol>
  <symbol id="github" viewBox="0 0 50 50">
    <path d="M25 10c-8.3 0-15 6.7-15 15 0 6.6 4.3 12.2 10.3 14.2.8.1 1-.3 1-.7v-2.6c-4.2.9-5.1-2-5.1-2-.7-1.7-1.7-2.2-1.7-2.2-1.4-.9.1-.9.1-.9 1.5.1 2.3 1.5 2.3 1.5 1.3 2.3 3.5 1.6 4.4 1.2.1-1 .5-1.6 1-2-3.3-.4-6.8-1.7-6.8-7.4 0-1.6.6-3 1.5-4-.2-.4-.7-1.9.1-4 0 0 1.3-.4 4.1 1.5 1.2-.3 2.5-.5 3.8-.5 1.3 0 2.6.2 3.8.5 2.9-1.9 4.1-1.5 4.1-1.5.8 2.1.3 3.6.1 4 1 1 1.5 2.4 1.5 4 0 5.8-3.5 7-6.8 7.4.5.5 1 1.4 1 2.8v4.1c0 .4.3.9 1 .7 6-2 10.2-7.6 10.2-14.2C40 16.7 33.3 10 25 10z"></path>
  </symbol>
  <symbol id="linkedin" viewBox="0 0 50 50">
    <path d="M36.1 12H13.9c-1.1 0-1.9.8-1.9 1.9v22.2c0 1 .9 1.9 1.9 1.9h22.2c1.1 0 1.9-.8 1.9-1.9V13.9c0-1.1-.9-1.9-1.9-1.9zM20 34h-4V22h4v12zm-2-13.6c-1.3 0-2.4-1.1-2.4-2.4 0-1.3 1.1-2.4 2.4-2.4 1.3 0 2.4 1.1 2.4 2.4 0 1.3-1.1 2.4-2.4 2.4zM34 34h-4v-6c0-1.6-.4-3.2-2-3.2s-2 1.6-2 3.2v6h-4V22h4v1.4h.2c.5-1 1.8-1.8 3.3-1.8 3.7 0 4.5 2.4 4.5 5.4v7z"></path>
  </symbol>
  <symbol id="twitter" viewBox="0 0 50 50">
    <path d="M39.2 16.8c-1.1.5-2.2.8-3.5 1 1.2-.8 2.2-1.9 2.7-3.3-1.2.7-2.5 1.2-3.8 1.5-1.1-1.2-2.7-1.9-4.4-1.9-3.3 0-6.1 2.7-6.1 6.1 0 .5.1.9.2 1.4-5-.2-9.5-2.7-12.5-6.3-.5.7-.8 1.7-.8 2.8 0 2.1 1.1 4 2.7 5-1 0-1.9-.3-2.7-.8v.1c0 2.9 2.1 5.4 4.9 5.9-.5.1-1 .2-1.6.2-.4 0-.8 0-1.1-.1.8 2.4 3 4.2 5.7 4.2-2.1 1.6-4.7 2.6-7.5 2.6-.5 0-1 0-1.4-.1 2.4 1.9 5.6 2.9 9 2.9 11.1 0 17.2-9.2 17.2-17.2V20c1.2-.9 2.2-1.9 3-3.2z"></path>
  </symbol>
  <symbol id="instagram" viewBox="0 0 50 50">
    <path d="M35 23h-2.3c.2.6.3 1.3.3 2 0 4.4-3.6 8-8 8s-8-3.6-8-8c0-.7.1-1.4.3-2H15v11c0 .6.4 1 1 1h18c.6 0 1-.4 1-1V23zm0-7c0-.6-.4-1-1-1h-3c-.6 0-1 .4-1 1v3c0 .6.4 1 1 1h3c.6 0 1-.4 1-1v-3zm-10 4c-2.8 0-5 2.2-5 5s2.2 5 5 5 5-2.2 5-5-2.2-5-5-5m10 18H15c-1.7 0-3-1.3-3-3V15c0-1.7 1.3-3 3-3h20c1.7 0 3 1.3 3 3v20c0 1.7-1.3 3-3 3"></path>
  </symbol>
  <symbol id="download" viewBox="0 0 50 50">
    <path d="M25 42c-9.4 0-17-7.6-17-17S15.6 8 25 8s17 7.6 17 17-7.6 17-17 17zm0-32c-8.3 0-15 6.7-15 15s6.7 15 15 15 15-6.7 15-15-6.7-15-15-15z"/>
    <path d="M25 34.4l-9.7-9.7 1.4-1.4 8.3 8.3 8.3-8.3 1.4 1.4z"/>
    <path d="M24 16h2v17h-2z"/>
  <symbol>
</svg>


