<?xml version="1.0" encoding="utf-8"?>
<!-- Generator: Adobe Illustrator 15.1.0, SVG Export Plug-In . SVG Version: 6.00 Build 0)  -->
<!DOCTYPE svg PUBLIC "-//W3C//DTD SVG 1.1//EN" "http://www.w3.org/Graphics/SVG/1.1/DTD/svg11.dtd">
<svg version="1.1" id="Layer_1" xmlns="http://www.w3.org/2000/svg" xmlns:xlink="http://www.w3.org/1999/xlink" x="0px" y="0px"
	 width="200px" height="40px" viewBox="0 0 200 40" enable-background="new 0 0 200 40" xml:space="preserve" class='maya-logo'>
   <title>
       MAYA
   </title>
<g>
	<path fill="#FFFFFF" d="M166.173,13.214l3.584,13.03h-6.937L166.173,13.214z M1.41,0L0.428,40h13.497l0.464-22.968L23.037,40h7.857
		l8.072-22.968L39.485,40h14.021L52.638,0.291H36.08l-9.567,22.85L17.501,0H1.41z M59.615,0.407L72.192,40h17.481l13.044-39.593
		H88.285L87.087,5.9H75.313l-1.22-5.493H59.615z M156.836,2.719L144.66,40h14.423l1.149-5.438h11.892L173.268,40h14.492
		L175.014,0.291H157.57L156.836,2.719z M77.61,14.431h6.875c-0.363,2.021-2.354,9.754-3.227,13.042L77.61,14.431z M104.839,19.053
		c-1.667,0.978-2.121,3.171-1.08,4.786c1.026,1.663,3.345,2.06,4.888,1.026c1.612-0.981,2.041-3.167,1.059-4.707
		C108.646,18.461,106.46,18.021,104.839,19.053z M125.502,20.08c1.146-1.267,3.344-1.267,4.635-0.111
		c1.18,1.167,1.24,3.289,0.1,4.557c-1.141,1.211-3.396,1.272-4.663,0.123c-1.234-1.162-1.234-3.352-0.123-4.617L125.502,20.08z
		 M106.75,0.407l13.848,21.465V40h14.534V21.872L148.46,0.291h-15.623l-4.918,10.388l-4.717-10.271L106.75,0.407L106.75,0.407z
		 M185.745,7.102c0,3.757,3.05,6.805,6.797,6.805c3.801,0,6.866-3.048,6.866-6.805c0-3.741-3.065-6.811-6.812-6.811
		C188.795,0.291,185.745,3.36,185.745,7.102z M187.689,7.102c0-3.166,2.149-5.371,4.904-5.371c2.665,0.051,4.795,2.256,4.795,5.371
		c0.043,3.176-2.076,5.314-4.795,5.314C189.84,12.416,187.689,10.277,187.689,7.102z M189.84,10.858h1.613V7.626h0.79l1.795,3.232
		h1.666l-2.013-3.282c1.22-0.079,2.013-0.643,2.013-2.027c0-1.691-1.093-2.238-2.992-2.238h-2.872V10.858z M191.453,6.408V4.5h1.143
		c0.633,0,1.442,0.111,1.442,0.865c0.065,0.927-0.464,1.043-1.204,1.043H191.453z"/>
</g>
</svg>
