<?xml version="1.0" encoding="utf-8"?>
<!-- Generator: Adobe Illustrator 15.1.0, SVG Export Plug-In . SVG Version: 6.00 Build 0)  -->
<!DOCTYPE svg PUBLIC "-//W3C//DTD SVG 1.0//EN" "http://www.w3.org/TR/2001/REC-SVG-20010904/DTD/svg10.dtd">
<svg version="1.0" id="Layer_1" xmlns="http://www.w3.org/2000/svg" xmlns:xlink="http://www.w3.org/1999/xlink" x="0px" y="0px"
	 width="306.737px" height="110px" viewBox="0 0 306.737 110" enable-background="new 0 0 306.737 110" xml:space="preserve" class='sapient-logo'>
    <title>
        Sapient
    </title>
<g>
	<path d="M114.057,54.994h-0.003c-2.586-2.332-5.764-3.604-10.948-4.39c-0.01,0-0.013,0-6.472-0.96
		c-2.487-0.378-4.681-1.275-6.013-2.461c-1.27-1.137-1.914-2.727-1.914-4.734c0-4.944,3.789-8.14,9.655-8.14
		c5.175,0,8.833,1.29,11.866,4.188c0.276,0.264,0.72,0.261,0.99-0.009l5.503-5.422c0.135-0.132,0.21-0.318,0.206-0.514
		c0-0.191-0.08-0.374-0.222-0.507c-4.986-4.659-10.402-6.646-18.104-6.646c-11.957,0-19.686,6.818-19.686,17.367
		c0,4.872,1.432,8.587,4.369,11.359c2.622,2.455,6.478,4.086,11.155,4.731l6.69,0.957c3.198,0.457,4.508,0.951,5.83,2.209
		c1.32,1.172,2.014,3.039,2.014,5.382c0,5.071-4.013,7.982-11.012,7.982c-6.25,0-10.307-1.51-14.009-5.216
		c-0.272-0.271-0.723-0.272-1,0l-5.739,5.658c-0.135,0.133-0.209,0.313-0.213,0.502c0,0.186,0.075,0.363,0.204,0.495
		c5.329,5.41,11.488,7.714,20.601,7.714c12.827,0,21.116-6.82,21.116-17.375C118.923,61.977,117.241,57.772,114.057,54.994"/>
	<path d="M145.484,68.76c0,2.686-0.489,4.426-1.548,5.479c-1.858,1.791-3.761,2.108-7.069,2.108c-4.514,0-6.709-1.647-6.709-5.037
		c0-4.222,3.562-5.104,6.55-5.104h8.776V68.76 M155.034,56.323c0-9.538-6.007-14.582-17.372-14.582
		c-7.178,0-11.257,1.645-15.048,6.069c-0.245,0.289-0.225,0.717,0.052,0.976l5.344,5.025c0.142,0.132,0.339,0.201,0.54,0.189
		c0.201-0.016,0.381-0.117,0.504-0.273c2.143-2.748,4.156-3.63,8.291-3.63c5.781,0,8.14,1.985,8.14,6.864v2.164h-9.977
		c-9.04,0-14.659,4.729-14.659,12.346c0,3.655,1.203,6.919,3.39,9.179c2.649,2.656,6.259,3.892,11.351,3.892
		c4.348,0,7.219-0.909,9.913-3.136l0.141-0.117v2.063c0,0.389,0.318,0.708,0.708,0.708h7.977c0.389,0,0.707-0.319,0.707-0.708
		V56.323z"/>
	<path d="M176.805,75.867c-6.431,0-7.747-5.103-7.747-12.764c0-7.617,1.316-12.688,7.747-12.688c6.382,0,7.662,4.854,7.662,12.688
		C184.467,70.765,183.163,75.867,176.805,75.867 M189.262,45.536c-2.415-2.408-6.198-3.795-10.387-3.795
		c-4.282,0-7.223,1.065-9.829,3.553l-0.145,0.138v-2.503c0-0.389-0.318-0.707-0.709-0.707h-7.978c-0.387,0-0.705,0.318-0.705,0.707
		v56.769c0,0.39,0.318,0.705,0.705,0.705h8.135c0.393,0,0.708-0.315,0.708-0.705V80.975l0.146,0.135
		c2.565,2.37,5.571,3.433,9.751,3.433c4.139,0,7.892-1.384,10.307-3.799c4.189-4.188,4.753-11.266,4.753-17.64
		C194.015,56.449,193.439,49.716,189.262,45.536z"/>
	<path d="M207.093,42.929c0-0.389-0.317-0.707-0.708-0.707h-8.146c-0.396,0-0.711,0.318-0.711,0.707v40.423
		c0,0.389,0.314,0.708,0.711,0.708h8.146c0.391,0,0.708-0.319,0.708-0.708V42.929"/>
	<path d="M207.332,28c0-0.391-0.319-0.705-0.708-0.705H198c-0.39,0-0.711,0.314-0.711,0.705v6.954c0,0.394,0.321,0.711,0.711,0.711
		h8.624c0.389,0,0.708-0.317,0.708-0.711V28"/>
	<path d="M219.797,59.126l0.003-0.093c0.102-1.96,0.321-2.995,0.942-4.427c1.23-2.925,3.996-4.671,7.399-4.671
		c3.351,0,6.094,1.746,7.32,4.671c0.654,1.504,0.909,2.62,1.015,4.427l0.006,0.093H219.797 M245.991,61.906
		c0-12.25-7.002-20.165-17.849-20.165c-11.009,0-17.847,8.186-17.847,21.362c0,13.823,6.706,21.438,18.885,21.438
		c7.611,0,11.633-2.494,15.649-6.511c0.136-0.132,0.211-0.321,0.208-0.511c-0.003-0.191-0.088-0.375-0.223-0.504l-5.185-4.866
		c-0.279-0.261-0.714-0.252-0.981,0.018c-2.613,2.611-4.773,3.94-9.31,3.94c-5.773,0-9.244-3.577-9.524-9.817l-0.006-0.085h25.474
		c0.396,0,0.708-0.323,0.708-0.711V61.906z"/>
	<path d="M283.697,57.518c0-5.351-1.319-9.022-4.278-11.902c-2.619-2.533-6.237-3.874-10.462-3.874c-3.76,0-7.187,1.206-9.913,3.486
		l-0.143,0.12v-2.419c0-0.389-0.314-0.707-0.707-0.707h-7.976c-0.391,0-0.702,0.318-0.702,0.707v40.423
		c0,0.389,0.312,0.708,0.702,0.708h8.138c0.39,0,0.708-0.319,0.708-0.708V58.718c0-5.199,2.862-8.302,7.659-8.302
		c4.724,0,7.424,3.023,7.424,8.302v24.634c0,0.389,0.321,0.708,0.711,0.708h8.131c0.391,0,0.708-0.319,0.708-0.708V57.518"/>
	<path d="M306.737,76.417c0-0.393-0.314-0.708-0.708-0.708h-3.349c-2.529,0-3.753-1.306-3.753-3.999V50.574h7.102
		c0.394,0,0.708-0.318,0.708-0.707v-6.218c0-0.393-0.314-0.708-0.708-0.708h-7.102V31.368c0-0.392-0.317-0.707-0.685-0.711
		c0,0-8.134,2.206-8.154,2.209c-0.394,0-0.714,0.32-0.714,0.711v9.364h-3.91c-0.391,0-0.711,0.315-0.711,0.708v6.218
		c0,0.389,0.32,0.707,0.711,0.707h3.91v21.537c0,5.947,3.648,11.948,11.791,11.948h4.863c0.394,0,0.708-0.319,0.708-0.708V76.417"/>
	<path class='bug' fill-rule="evenodd" clip-rule="evenodd" fill="#E65C3D" d="M25.894,91.121c0-5.271,4.671-9.133,9.745-9.133h10.567
		c4.21,0,7.617-3.408,7.617-7.624V63.73c0-4.215-3.407-7.597-7.617-7.597l-11.279-0.006c-5.271,0-9.148-4.672-9.148-9.745
		l0.007-11.5c0-5.27,4.675-9.164,9.754-9.164l10.667,0.03c4.21,0,7.617-3.357,7.617-7.563V7.62c0-4.212-3.407-7.62-7.617-7.62
		H35.639c-4.206,0-7.624,3.408-7.624,7.62v10.67c0,5.077-3.897,9.746-9.166,9.746H7.624C3.42,28.036,0,31.423,0,35.639V46.27
		c0,4.215,3.42,7.626,7.624,7.626h10.742c5.077,0,9.745,3.896,9.745,9.166l0.012,11.471c0,5.076-3.897,9.73-9.169,9.665H7.624
		C3.42,84.197,0,87.597,0,91.806v10.564c0,4.216,3.42,7.63,7.624,7.63h10.639c4.21,0,7.625-3.414,7.625-7.63L25.894,91.121"/>
</g>
</svg>
